<svg width="139" height="40" viewBox="0 0 139 40" fill="none" xmlns="http://www.w3.org/2000/svg">
<g filter="url(#filter0_d_370_769)">
<path d="M1.008 2.6H5.168V21.48H16.88V25H1.008V2.6ZM27.5845 7.72C30.1018 7.72 32.0218 8.328 33.3445 9.544C34.6885 10.7387 35.3605 12.552 35.3605 14.984V25H31.5845V22.92C31.0938 23.6667 30.3898 24.2427 29.4725 24.648C28.5765 25.032 27.4885 25.224 26.2085 25.224C24.9285 25.224 23.8085 25.0107 22.8485 24.584C21.8885 24.136 21.1418 23.528 20.6085 22.76C20.0965 21.9707 19.8405 21.0853 19.8405 20.104C19.8405 18.568 20.4058 17.3413 21.5365 16.424C22.6885 15.4853 24.4912 15.016 26.9445 15.016H31.3605V14.76C31.3605 13.5653 30.9978 12.648 30.2725 12.008C29.5685 11.368 28.5125 11.048 27.1045 11.048C26.1445 11.048 25.1952 11.1973 24.2565 11.496C23.3392 11.7947 22.5605 12.2107 21.9205 12.744L20.3525 9.832C21.2485 9.14933 22.3258 8.62667 23.5845 8.264C24.8432 7.90133 26.1765 7.72 27.5845 7.72ZM27.0405 22.312C28.0432 22.312 28.9285 22.088 29.6965 21.64C30.4858 21.1707 31.0405 20.5093 31.3605 19.656V17.672H27.2325C24.9285 17.672 23.7765 18.4293 23.7765 19.944C23.7765 20.6693 24.0645 21.2453 24.6405 21.672C25.2165 22.0987 26.0165 22.312 27.0405 22.312ZM41.614 7.912H45.614V25H41.614V7.912ZM43.63 5.096C42.9047 5.096 42.2967 4.872 41.806 4.424C41.3153 3.95467 41.07 3.37867 41.07 2.696C41.07 2.01333 41.3153 1.448 41.806 0.999998C42.2967 0.530666 42.9047 0.296 43.63 0.296C44.3553 0.296 44.9633 0.519999 45.454 0.967999C45.9447 1.39467 46.19 1.93867 46.19 2.6C46.19 3.304 45.9447 3.90133 45.454 4.392C44.9847 4.86133 44.3767 5.096 43.63 5.096ZM61.68 7.72C63.8347 7.72 65.5627 8.34933 66.864 9.608C68.1653 10.8667 68.816 12.7333 68.816 15.208V25H64.816V15.72C64.816 14.2267 64.464 13.1067 63.76 12.36C63.056 11.592 62.0533 11.208 60.752 11.208C59.28 11.208 58.1173 11.656 57.264 12.552C56.4107 13.4267 55.984 14.696 55.984 16.36V25H51.984V7.912H55.792V10.12C56.4533 9.33067 57.2853 8.73333 58.288 8.328C59.2907 7.92267 60.4213 7.72 61.68 7.72ZM84.7063 7.72C86.8609 7.72 88.5889 8.34933 89.8903 9.608C91.1916 10.8667 91.8423 12.7333 91.8423 15.208V25H87.8423V15.72C87.8423 14.2267 87.4903 13.1067 86.7863 12.36C86.0823 11.592 85.0796 11.208 83.7783 11.208C82.3063 11.208 81.1436 11.656 80.2903 12.552C79.4369 13.4267 79.0103 14.696 79.0103 16.36V25H75.0103V7.912H78.8183V10.12C79.4796 9.33067 80.3116 8.73333 81.3143 8.328C82.3169 7.92267 83.4476 7.72 84.7063 7.72ZM113.724 7.912L105.724 26.376C104.977 28.232 104.071 29.5333 103.004 30.28C101.937 31.048 100.647 31.432 99.132 31.432C98.2787 31.432 97.436 31.2933 96.604 31.016C95.772 30.7387 95.0893 30.3547 94.556 29.864L96.156 26.92C96.54 27.2827 96.988 27.5707 97.5 27.784C98.0333 27.9973 98.5667 28.104 99.1 28.104C99.804 28.104 100.38 27.9227 100.828 27.56C101.297 27.1973 101.724 26.5893 102.108 25.736L102.396 25.064L94.94 7.912H99.1L104.476 20.552L109.884 7.912H113.724ZM123.341 7.72C125.858 7.72 127.778 8.328 129.101 9.544C130.445 10.7387 131.117 12.552 131.117 14.984V25H127.341V22.92C126.85 23.6667 126.146 24.2427 125.229 24.648C124.333 25.032 123.245 25.224 121.965 25.224C120.685 25.224 119.565 25.0107 118.605 24.584C117.645 24.136 116.898 23.528 116.365 22.76C115.853 21.9707 115.597 21.0853 115.597 20.104C115.597 18.568 116.162 17.3413 117.293 16.424C118.445 15.4853 120.247 15.016 122.701 15.016H127.117V14.76C127.117 13.5653 126.754 12.648 126.029 12.008C125.325 11.368 124.269 11.048 122.861 11.048C121.901 11.048 120.951 11.1973 120.013 11.496C119.095 11.7947 118.317 12.2107 117.677 12.744L116.109 9.832C117.005 9.14933 118.082 8.62667 119.341 8.264C120.599 7.90133 121.933 7.72 123.341 7.72ZM122.797 22.312C123.799 22.312 124.685 22.088 125.453 21.64C126.242 21.1707 126.797 20.5093 127.117 19.656V17.672H122.989C120.685 17.672 119.533 18.4293 119.533 19.944C119.533 20.6693 119.821 21.2453 120.397 21.672C120.973 22.0987 121.773 22.312 122.797 22.312Z" fill="#D5D8D9"/>
</g>
<defs>
<filter id="filter0_d_370_769" x="0.00799561" y="0.296021" width="138.109" height="39.136" filterUnits="userSpaceOnUse" color-interpolation-filters="sRGB">
<feFlood flood-opacity="0" result="BackgroundImageFix"/>
<feColorMatrix in="SourceAlpha" type="matrix" values="0 0 0 0 0 0 0 0 0 0 0 0 0 0 0 0 0 0 127 0" result="hardAlpha"/>
<feOffset dx="3" dy="4"/>
<feGaussianBlur stdDeviation="2"/>
<feComposite in2="hardAlpha" operator="out"/>
<feColorMatrix type="matrix" values="0 0 0 0 0 0 0 0 0 0 0 0 0 0 0 0 0 0 0.15 0"/>
<feBlend mode="normal" in2="BackgroundImageFix" result="effect1_dropShadow_370_769"/>
<feBlend mode="normal" in="SourceGraphic" in2="effect1_dropShadow_370_769" result="shape"/>
</filter>
</defs>
</svg>
