<svg width="130" height="61" viewBox="0 0 130 61" fill="none" xmlns="http://www.w3.org/2000/svg">
<g filter="url(#filter0_d_1740_14)">
<path d="M1.008 23V0.599998H5.168V19.48H16.88V23H1.008ZM27.5845 5.72C32.5125 5.72 35.3605 8.056 35.3605 12.984V23H31.5845V20.92C30.6245 22.392 28.7685 23.224 26.2085 23.224C22.3045 23.224 19.8405 21.08 19.8405 18.104C19.8405 15.256 21.7605 13.016 26.9445 13.016H31.3605V12.76C31.3605 10.424 29.9525 9.048 27.1045 9.048C25.1845 9.048 23.2005 9.688 21.9205 10.744L20.3525 7.832C22.1765 6.424 24.8325 5.72 27.5845 5.72ZM27.0405 20.312C28.9925 20.312 30.6885 19.416 31.3605 17.656V15.672H27.2325C24.5125 15.672 23.7765 16.696 23.7765 17.944C23.7765 19.384 24.9925 20.312 27.0405 20.312ZM51.086 5.72C56.078 5.72 59.758 9.176 59.758 14.456C59.758 19.768 56.078 23.224 51.086 23.224C48.91 23.224 46.99 22.488 45.614 20.92V29.208H41.614V5.912H45.422V8.152C46.766 6.52 48.75 5.72 51.086 5.72ZM50.638 19.8C53.518 19.8 55.694 17.72 55.694 14.456C55.694 11.192 53.518 9.112 50.638 9.112C47.758 9.112 45.55 11.192 45.55 14.456C45.55 17.72 47.758 19.8 50.638 19.8ZM73.8235 19.224L74.9435 22.072C73.9835 22.84 72.5435 23.224 71.1035 23.224C67.3595 23.224 65.2155 21.24 65.2155 17.464V9.24H62.3995V6.04H65.2155V2.136H69.2155V6.04H73.7915V9.24H69.2155V17.368C69.2155 19.032 70.0475 19.928 71.5835 19.928C72.4155 19.928 73.2155 19.704 73.8235 19.224ZM86.4715 23.224C81.2235 23.224 77.3835 19.576 77.3835 14.456C77.3835 9.336 81.2235 5.72 86.4715 5.72C91.7835 5.72 95.5915 9.336 95.5915 14.456C95.5915 19.576 91.7835 23.224 86.4715 23.224ZM86.4715 19.8C89.3835 19.8 91.5595 17.72 91.5595 14.456C91.5595 11.192 89.3835 9.112 86.4715 9.112C83.5915 9.112 81.4155 11.192 81.4155 14.456C81.4155 17.72 83.5915 19.8 86.4715 19.8ZM110.008 5.72C115 5.72 118.681 9.176 118.681 14.456C118.681 19.768 115 23.224 110.008 23.224C107.832 23.224 105.912 22.488 104.536 20.92V29.208H100.536V5.912H104.344V8.152C105.688 6.52 107.672 5.72 110.008 5.72ZM109.56 19.8C112.44 19.8 114.616 17.72 114.616 14.456C114.616 11.192 112.44 9.112 109.56 9.112C106.68 9.112 104.472 11.192 104.472 14.456C104.472 17.72 106.68 19.8 109.56 19.8ZM1.008 52V29.6H5.168V48.48H16.88V52H1.008ZM36.808 43.552C36.808 43.872 36.776 44.352 36.744 44.736H23.336C23.816 47.232 25.896 48.832 28.872 48.832C30.792 48.832 32.296 48.224 33.512 46.976L35.656 49.44C34.12 51.264 31.72 52.224 28.776 52.224C23.048 52.224 19.336 48.544 19.336 43.456C19.336 38.368 23.08 34.72 28.168 34.72C33.16 34.72 36.808 38.208 36.808 43.552ZM28.168 37.92C25.576 37.92 23.688 39.584 23.304 42.08H33C32.68 39.616 30.792 37.92 28.168 37.92ZM51.4663 34.72C55.5623 34.72 58.6023 37.056 58.6023 42.208V52H54.6023V42.72C54.6023 39.68 53.0983 38.208 50.5383 38.208C47.6903 38.208 45.7703 39.936 45.7703 43.36V52H41.7703V34.912H45.5783V37.12C46.8903 35.552 48.9703 34.72 51.4663 34.72ZM72.6328 52.224C67.3848 52.224 63.5448 48.576 63.5448 43.456C63.5448 38.336 67.3848 34.72 72.6328 34.72C77.9448 34.72 81.7528 38.336 81.7528 43.456C81.7528 48.576 77.9448 52.224 72.6328 52.224ZM72.6328 48.8C75.5448 48.8 77.7208 46.72 77.7208 43.456C77.7208 40.192 75.5448 38.112 72.6328 38.112C69.7528 38.112 67.5768 40.192 67.5768 43.456C67.5768 46.72 69.7528 48.8 72.6328 48.8ZM98.389 34.912H102.229L94.901 52H90.773L83.445 34.912H87.605L92.917 47.584L98.389 34.912ZM113.06 52.224C107.812 52.224 103.972 48.576 103.972 43.456C103.972 38.336 107.812 34.72 113.06 34.72C118.372 34.72 122.18 38.336 122.18 43.456C122.18 48.576 118.372 52.224 113.06 52.224ZM113.06 48.8C115.972 48.8 118.148 46.72 118.148 43.456C118.148 40.192 115.972 38.112 113.06 38.112C110.18 38.112 108.004 40.192 108.004 43.456C108.004 46.72 110.18 48.8 113.06 48.8Z" fill="#FCFCFC"/>
</g>
<defs>
<filter id="filter0_d_1740_14" x="0.00800037" y="0.599976" width="129.172" height="59.624" filterUnits="userSpaceOnUse" color-interpolation-filters="sRGB">
<feFlood flood-opacity="0" result="BackgroundImageFix"/>
<feColorMatrix in="SourceAlpha" type="matrix" values="0 0 0 0 0 0 0 0 0 0 0 0 0 0 0 0 0 0 127 0" result="hardAlpha"/>
<feOffset dx="3" dy="4"/>
<feGaussianBlur stdDeviation="2"/>
<feComposite in2="hardAlpha" operator="out"/>
<feColorMatrix type="matrix" values="0 0 0 0 0 0 0 0 0 0 0 0 0 0 0 0 0 0 0.15 0"/>
<feBlend mode="normal" in2="BackgroundImageFix" result="effect1_dropShadow_1740_14"/>
<feBlend mode="normal" in="SourceGraphic" in2="effect1_dropShadow_1740_14" result="shape"/>
</filter>
</defs>
</svg>
