<svg width="130" height="61" viewBox="0 0 130 61" fill="none" xmlns="http://www.w3.org/2000/svg">
<g filter="url(#filter0_d_1740_6)">
<path d="M5.008 23V0.599998H9.168V19.48H20.88V23H5.008ZM31.5845 5.72C36.5125 5.72 39.3605 8.056 39.3605 12.984V23H35.5845V20.92C34.6245 22.392 32.7685 23.224 30.2085 23.224C26.3045 23.224 23.8405 21.08 23.8405 18.104C23.8405 15.256 25.7605 13.016 30.9445 13.016H35.3605V12.76C35.3605 10.424 33.9525 9.048 31.1045 9.048C29.1845 9.048 27.2005 9.688 25.9205 10.744L24.3525 7.832C26.1765 6.424 28.8325 5.72 31.5845 5.72ZM31.0405 20.312C32.9925 20.312 34.6885 19.416 35.3605 17.656V15.672H31.2325C28.5125 15.672 27.7765 16.696 27.7765 17.944C27.7765 19.384 28.9925 20.312 31.0405 20.312ZM55.086 5.72C60.078 5.72 63.758 9.176 63.758 14.456C63.758 19.768 60.078 23.224 55.086 23.224C52.91 23.224 50.99 22.488 49.614 20.92V29.208H45.614V5.912H49.422V8.152C50.766 6.52 52.75 5.72 55.086 5.72ZM54.638 19.8C57.518 19.8 59.694 17.72 59.694 14.456C59.694 11.192 57.518 9.112 54.638 9.112C51.758 9.112 49.55 11.192 49.55 14.456C49.55 17.72 51.758 19.8 54.638 19.8ZM77.8235 19.224L78.9435 22.072C77.9835 22.84 76.5435 23.224 75.1035 23.224C71.3595 23.224 69.2155 21.24 69.2155 17.464V9.24H66.3995V6.04H69.2155V2.136H73.2155V6.04H77.7915V9.24H73.2155V17.368C73.2155 19.032 74.0475 19.928 75.5835 19.928C76.4155 19.928 77.2155 19.704 77.8235 19.224ZM90.4715 23.224C85.2235 23.224 81.3835 19.576 81.3835 14.456C81.3835 9.336 85.2235 5.72 90.4715 5.72C95.7835 5.72 99.5915 9.336 99.5915 14.456C99.5915 19.576 95.7835 23.224 90.4715 23.224ZM90.4715 19.8C93.3835 19.8 95.5595 17.72 95.5595 14.456C95.5595 11.192 93.3835 9.112 90.4715 9.112C87.5915 9.112 85.4155 11.192 85.4155 14.456C85.4155 17.72 87.5915 19.8 90.4715 19.8ZM114.008 5.72C119 5.72 122.681 9.176 122.681 14.456C122.681 19.768 119 23.224 114.008 23.224C111.832 23.224 109.912 22.488 108.536 20.92V29.208H104.536V5.912H108.344V8.152C109.688 6.52 111.672 5.72 114.008 5.72ZM113.56 19.8C116.44 19.8 118.616 17.72 118.616 14.456C118.616 11.192 116.44 9.112 113.56 9.112C110.68 9.112 108.472 11.192 108.472 14.456C108.472 17.72 110.68 19.8 113.56 19.8ZM21.776 52L19.536 46.816H8.336L6.128 52H1.84L11.92 29.6H16.016L26.128 52H21.776ZM9.744 43.552H18.16L13.936 33.76L9.744 43.552ZM37.3965 52.224C31.9885 52.224 28.1485 48.576 28.1485 43.456C28.1485 38.336 31.9885 34.72 37.3965 34.72C40.7245 34.72 43.3805 36.096 44.6925 38.688L41.6205 40.48C40.5965 38.848 39.0605 38.112 37.3645 38.112C34.4205 38.112 32.1805 40.16 32.1805 43.456C32.1805 46.784 34.4205 48.8 37.3645 48.8C39.0605 48.8 40.5965 48.064 41.6205 46.432L44.6925 48.224C43.3805 50.784 40.7245 52.224 37.3965 52.224ZM65.0843 43.552C65.0843 43.872 65.0523 44.352 65.0203 44.736H51.6123C52.0923 47.232 54.1723 48.832 57.1483 48.832C59.0683 48.832 60.5723 48.224 61.7883 46.976L63.9323 49.44C62.3963 51.264 59.9963 52.224 57.0523 52.224C51.3243 52.224 47.6123 48.544 47.6123 43.456C47.6123 38.368 51.3563 34.72 56.4443 34.72C61.4363 34.72 65.0843 38.208 65.0843 43.552ZM56.4443 37.92C53.8523 37.92 51.9643 39.584 51.5803 42.08H61.2763C60.9563 39.616 59.0683 37.92 56.4443 37.92ZM73.8545 37.408C75.0065 35.616 77.0865 34.72 79.9345 34.72V38.528C79.5825 38.464 79.2945 38.432 79.0065 38.432C75.9665 38.432 74.0465 40.224 74.0465 43.712V52H70.0465V34.912H73.8545V37.408Z" fill="#FCFCFC"/>
</g>
<defs>
<filter id="filter0_d_1740_6" x="0.839996" y="0.599976" width="128.841" height="59.624" filterUnits="userSpaceOnUse" color-interpolation-filters="sRGB">
<feFlood flood-opacity="0" result="BackgroundImageFix"/>
<feColorMatrix in="SourceAlpha" type="matrix" values="0 0 0 0 0 0 0 0 0 0 0 0 0 0 0 0 0 0 127 0" result="hardAlpha"/>
<feOffset dx="3" dy="4"/>
<feGaussianBlur stdDeviation="2"/>
<feComposite in2="hardAlpha" operator="out"/>
<feColorMatrix type="matrix" values="0 0 0 0 0 0 0 0 0 0 0 0 0 0 0 0 0 0 0.15 0"/>
<feBlend mode="normal" in2="BackgroundImageFix" result="effect1_dropShadow_1740_6"/>
<feBlend mode="normal" in="SourceGraphic" in2="effect1_dropShadow_1740_6" result="shape"/>
</filter>
</defs>
</svg>
