<svg width="435" height="42" viewBox="0 0 435 42" fill="none" xmlns="http://www.w3.org/2000/svg">
<path d="M12.49 2.18C18.286 2.18 23.578 6.044 23.578 12.638C23.578 19.19 18.286 23.054 12.49 23.054H7.366V32H0.982V2.18H12.49ZM12.49 17.09C15.22 17.09 17.236 15.494 17.236 12.638C17.236 9.782 15.22 8.144 12.49 8.144H7.366V17.09H12.49ZM31.3608 8.186C29.6388 8.186 28.2948 6.842 28.2948 5.12C28.2948 3.398 29.6388 2.054 31.3608 2.054C33.0828 2.054 34.4268 3.398 34.4268 5.12C34.4268 6.842 33.0828 8.186 31.3608 8.186ZM34.5528 10.748V32H28.2108V10.748H34.5528ZM54.5724 10.328C59.8224 10.328 62.3004 13.688 62.3004 19.358V32H55.9164V22.382C55.9164 17.72 54.4884 16.292 51.9684 16.292C49.4064 16.292 47.1384 17.972 46.9704 21.626V32H40.6284V10.748H46.5924L46.9704 13.52C49.0704 11.672 51.6324 10.328 54.5724 10.328ZM71.7057 8.186C69.9837 8.186 68.6397 6.842 68.6397 5.12C68.6397 3.398 69.9837 2.054 71.7057 2.054C73.4277 2.054 74.7717 3.398 74.7717 5.12C74.7717 6.842 73.4277 8.186 71.7057 8.186ZM74.8557 10.748V32L71.2437 41.66H64.6077L68.5137 31.622V10.748H74.8557ZM79.5587 21.374C79.5587 15.284 83.8847 10.328 89.9747 10.328C93.3347 10.328 95.8547 12.008 96.8627 14.024L97.2407 10.748H103.205V32H97.2407L96.8627 28.724C95.8547 30.74 93.3347 32.42 89.9747 32.42C83.8847 32.42 79.5587 27.464 79.5587 21.374ZM85.9007 21.374C85.9007 24.104 87.9587 26.414 91.0667 26.414C94.1327 26.414 96.1067 24.104 96.1067 21.374C96.1067 18.644 94.1327 16.292 91.0667 16.292C87.9587 16.292 85.9007 18.644 85.9007 21.374ZM135.559 10.328C140.095 10.328 142.447 13.73 142.447 18.56V32H136.105V20.828C136.105 18.14 135.055 16.292 132.997 16.292C130.393 16.292 128.881 19.232 128.839 23.558V32H122.455V20.828C122.455 18.14 121.447 16.292 119.389 16.292C116.743 16.292 115.273 19.232 115.189 23.558V32H108.847V10.748H114.811L115.147 13.268C116.995 11.504 119.263 10.328 121.951 10.328C124.849 10.328 126.907 11.756 127.957 14.066C129.931 11.924 132.493 10.328 135.559 10.328ZM162.502 21.374C162.502 15.284 166.828 10.328 172.918 10.328C176.278 10.328 178.798 12.008 179.806 14.024L180.184 10.748H186.148V32H180.184L179.806 28.724C178.798 30.74 176.278 32.42 172.918 32.42C166.828 32.42 162.502 27.464 162.502 21.374ZM168.844 21.374C168.844 24.104 170.902 26.414 174.01 26.414C177.076 26.414 179.05 24.104 179.05 21.374C179.05 18.644 177.076 16.292 174.01 16.292C170.902 16.292 168.844 18.644 168.844 21.374ZM191.791 41.66V10.748H197.755L198.133 14.024C199.141 12.008 201.661 10.328 205.063 10.328C211.153 10.328 215.437 15.284 215.437 21.374C215.437 27.464 211.153 32.42 205.063 32.42C201.661 32.42 199.141 30.74 198.133 28.724V41.66H191.791ZM198.889 21.374C198.889 24.104 200.863 26.414 203.929 26.414C207.037 26.414 209.095 24.104 209.095 21.374C209.095 18.644 207.037 16.292 203.929 16.292C200.863 16.292 198.889 18.644 198.889 21.374ZM219.274 21.374C219.274 15.284 223.6 10.328 229.69 10.328C233.05 10.328 235.57 12.008 236.578 14.024L236.956 10.748H242.92V32H236.956L236.578 28.724C235.57 30.74 233.05 32.42 229.69 32.42C223.6 32.42 219.274 27.464 219.274 21.374ZM225.616 21.374C225.616 24.104 227.674 26.414 230.782 26.414C233.848 26.414 235.822 24.104 235.822 21.374C235.822 18.644 233.848 16.292 230.782 16.292C227.674 16.292 225.616 18.644 225.616 21.374ZM276.907 10.328C282.157 10.328 284.635 13.688 284.635 19.358V32H278.251V22.382C278.251 17.72 276.823 16.292 274.303 16.292C271.741 16.292 269.473 17.972 269.305 21.626V32H262.963V0.499997H269.305V13.478C271.405 11.63 273.967 10.328 276.907 10.328ZM289.257 21.374C289.257 15.284 293.583 10.328 299.673 10.328C303.033 10.328 305.553 12.008 306.561 14.024L306.939 10.748H312.903V32H306.939L306.561 28.724C305.553 30.74 303.033 32.42 299.673 32.42C293.583 32.42 289.257 27.464 289.257 21.374ZM295.599 21.374C295.599 24.104 297.657 26.414 300.765 26.414C303.831 26.414 305.805 24.104 305.805 21.374C305.805 18.644 303.831 16.292 300.765 16.292C297.657 16.292 295.599 18.644 295.599 21.374ZM329.255 10.328C330.347 10.328 331.229 10.748 331.733 11.21L330.893 16.796C330.431 16.544 329.549 16.292 328.835 16.292C326.441 16.292 324.887 18.518 324.887 23.432V32H318.545V10.748H324.509L324.803 12.764C326.105 11.294 327.617 10.328 329.255 10.328ZM338.857 8.186C337.135 8.186 335.791 6.842 335.791 5.12C335.791 3.398 337.135 2.054 338.857 2.054C340.579 2.054 341.923 3.398 341.923 5.12C341.923 6.842 340.579 8.186 338.857 8.186ZM342.049 10.748V32H335.707V10.748H342.049ZM363.76 8.186C362.038 8.186 360.694 6.842 360.694 5.12C360.694 3.398 362.038 2.054 363.76 2.054C365.482 2.054 366.826 3.398 366.826 5.12C366.826 6.842 365.482 8.186 363.76 8.186ZM366.952 10.748V32H360.61V10.748H366.952ZM386.971 10.328C392.221 10.328 394.699 13.688 394.699 19.358V32H388.315V22.382C388.315 17.72 386.887 16.292 384.367 16.292C381.805 16.292 379.537 17.972 379.369 21.626V32H373.027V10.748H378.991L379.369 13.52C381.469 11.672 384.031 10.328 386.971 10.328ZM403.387 8.186C401.665 8.186 400.321 6.842 400.321 5.12C400.321 3.398 401.665 2.054 403.387 2.054C405.109 2.054 406.453 3.398 406.453 5.12C406.453 6.842 405.109 8.186 403.387 8.186ZM406.579 10.748V32H400.237V10.748H406.579ZM424.194 1.76C430.536 1.76 434.274 6.212 434.274 10.244C434.274 14.066 431.586 17.594 426.798 18.98L426.63 23.096H421.002L420.624 15.116H421.926C426.084 15.116 427.932 13.562 427.932 11.21C427.932 9.026 426.294 7.724 424.278 7.724C422.094 7.724 420.036 9.32 420.036 12.26H413.652C413.652 5.414 418.902 1.76 424.194 1.76ZM423.816 26.288C425.538 26.288 426.882 27.632 426.882 29.354C426.882 31.076 425.538 32.42 423.816 32.42C422.094 32.42 420.75 31.076 420.75 29.354C420.75 27.632 422.094 26.288 423.816 26.288Z" fill="#576A80"/>
</svg>
