<svg width="26" height="24" viewBox="0 0 26 24" fill="none" xmlns="http://www.w3.org/2000/svg">
<path d="M4.76616 23.0474H7.67164C8.22392 23.0474 8.67163 22.5996 8.67163 22.0474V15.4628C8.67163 14.9105 9.11935 14.4628 9.67164 14.4628H16.2562C16.8085 14.4628 17.2562 14.9105 17.2562 15.4628V22.0474C17.2562 22.5996 17.7039 23.0474 18.2562 23.0474H21.0895C21.6418 23.0474 22.0895 22.5996 22.0895 22.0474V13.7314C22.0895 13.1792 22.5373 12.7314 23.0895 12.7314H24.5417C24.9369 12.7314 25.295 12.4987 25.4555 12.1376L25.4722 12.0999C25.6488 11.7026 25.5484 11.2366 25.2238 10.9473L22.7849 8.77348C22.572 8.58374 22.4502 8.31213 22.4502 8.02697V4.64189C22.4502 4.08961 22.0025 3.64189 21.4502 3.64189H20.4664C19.9684 3.64189 19.5647 4.04561 19.5647 4.54363V5.02206C19.5647 5.25585 19.3751 5.44537 19.1414 5.44537C19.042 5.44537 18.9458 5.41042 18.8696 5.34664L13.4407 0.801485C13.0625 0.4849 12.5101 0.491267 12.1393 0.816483L0.911722 10.6652C0.627313 10.9147 0.508045 11.3034 0.603543 11.6694L0.685569 11.9839C0.800438 12.4242 1.19812 12.7314 1.65319 12.7314H2.76616C3.31845 12.7314 3.76616 13.1792 3.76616 13.7314V22.0474C3.76616 22.5996 4.21388 23.0474 4.76616 23.0474Z" fill="#AAB4B6"/>
</svg>
