<svg width="21" height="21" viewBox="0 0 21 21" fill="none" xmlns="http://www.w3.org/2000/svg">
<path d="M1 5C1 13.284 7.716 20 16 20H18.25C18.8467 20 19.419 19.7629 19.841 19.341C20.2629 18.919 20.5 18.3467 20.5 17.75V16.378C20.5 15.862 20.149 15.412 19.648 15.287L15.225 14.181C14.785 14.071 14.323 14.236 14.052 14.598L13.082 15.891C12.8 16.267 12.313 16.433 11.872 16.271C10.2349 15.6691 8.74815 14.7186 7.51478 13.4852C6.28141 12.2518 5.33087 10.7651 4.729 9.128C4.567 8.687 4.733 8.2 5.109 7.918L6.402 6.948C6.765 6.677 6.929 6.214 6.819 5.775L5.713 1.352C5.65214 1.10869 5.51172 0.892703 5.31405 0.738337C5.11638 0.583971 4.8728 0.500083 4.622 0.5H3.25C2.65326 0.5 2.08097 0.737053 1.65901 1.15901C1.23705 1.58097 1 2.15326 1 2.75V5Z" fill="#AAB4B6" stroke="#AAB4B6" stroke-linecap="round" stroke-linejoin="round"/>
</svg>
