<svg width="1280" height="832" viewBox="0 0 1280 832" fill="none" xmlns="http://www.w3.org/2000/svg">
<path d="M-112.638 58.4375C614.537 -163.388 1432.9 563.481 1400.17 233.77C1367.77 -92.6094 953.09 -543.401 941.458 -555.989C941.137 -556.336 940.917 -556.089 940.509 -555.852L-113.534 56.6066C-114.566 57.2063 -113.782 58.7866 -112.638 58.4375Z" fill="white"/>
<path d="M229.672 -63.9291C208.727 -113.439 235.135 -172.817 290.458 -195.859C345.781 -218.902 406.99 -196.017 427.936 -146.507C448.881 -96.9976 422.473 -37.6195 367.15 -14.5771C311.827 8.46538 250.617 -14.4192 229.672 -63.9291Z" fill="#1E90FF" stroke="white" stroke-width="16"/>
<path d="M473.76 -20.9958C458.763 -56.4454 477.52 -99.1889 517.392 -115.796C557.263 -132.402 601.149 -115.75 616.146 -80.3006C631.143 -44.8509 612.385 -2.10743 572.513 14.4993C532.642 31.1061 488.757 14.4539 473.76 -20.9958Z" fill="#1E90FF" stroke="white" stroke-width="16"/>
<path d="M524.262 91.9063C515.236 70.5713 526.522 44.324 551.322 33.9944C576.123 23.6647 602.908 34.0551 611.934 55.3901C620.96 76.7251 609.674 102.972 584.874 113.302C560.073 123.632 533.288 113.241 524.262 91.9063Z" fill="#1E90FF" stroke="white" stroke-width="16"/>
<path d="M373.069 29.6056C364.665 9.7396 375.433 -14.357 398.155 -23.8207C420.877 -33.2845 445.753 -24.0342 454.157 -4.16817C462.561 15.6978 451.793 39.7944 429.071 49.2582C406.349 58.7219 381.473 49.4716 373.069 29.6056Z" fill="#1E90FF" stroke="white" stroke-width="8"/>
<path d="M1061.5 287.276C1047.55 254.3 1064.87 214.579 1101.81 199.19C1138.76 183.802 1179.46 199.359 1193.41 232.335C1207.36 265.311 1190.05 305.033 1153.1 320.421C1116.15 335.809 1075.45 320.253 1061.5 287.276Z" fill="#1E90FF" stroke="white" stroke-width="16"/>
<path d="M1012.3 209.815C1006.7 196.567 1013.55 179.98 1029.3 173.421C1045.04 166.862 1061.77 173.627 1067.38 186.875C1072.98 200.123 1066.13 216.71 1050.38 223.27C1034.64 229.829 1017.91 223.063 1012.3 209.815Z" fill="#1E90FF" stroke="white" stroke-width="16"/>
<path d="M898.594 180.545C885.445 149.462 901.815 111.905 936.851 97.3126C971.886 82.72 1010.37 97.4305 1023.52 128.513C1036.67 159.595 1020.3 197.152 985.262 211.745C950.226 226.337 911.744 211.627 898.594 180.545Z" fill="#1E90FF" stroke="white" stroke-width="16"/>
<path d="M648.925 95.2903C620.42 27.9106 656.141 -52.3096 730.391 -83.2356C804.642 -114.162 887.367 -83.2748 915.872 -15.8951C944.377 51.4846 908.657 131.705 834.406 162.631C760.155 193.557 677.43 162.67 648.925 95.2903Z" fill="#1E90FF" stroke="white" stroke-width="16"/>
<path d="M1016.55 122.754C1003.26 91.3558 1019.79 53.4379 1055.15 38.7128C1090.5 23.9877 1129.35 38.839 1142.64 70.2371C1155.92 101.635 1139.39 139.553 1104.04 154.278C1068.68 169.003 1029.83 154.152 1016.55 122.754Z" fill="#1E90FF" stroke="white" stroke-width="16"/>
<rect width="1112.91" height="672.778" transform="matrix(0.968428 0.249293 -0.271087 0.962555 318.44 -556.856)" fill="url(#paint0_linear_370_682)" fill-opacity="0.25"/>
<defs>
<linearGradient id="paint0_linear_370_682" x1="556.455" y1="0" x2="556.455" y2="672.778" gradientUnits="userSpaceOnUse">
<stop stop-color="#007DF6"/>
<stop offset="1" stop-color="#007DF6" stop-opacity="0"/>
</linearGradient>
</defs>
</svg>
