<svg width="269" height="61" viewBox="0 0 269 61" fill="none" xmlns="http://www.w3.org/2000/svg">
<path d="M9.312 24.32C3.744 24.32 0.832 20.608 0.768 16.736H5.536C5.6 19.104 7.232 20.384 9.344 20.384C11.296 20.384 12.448 19.392 12.448 18.016C12.448 13.952 1.568 14.784 1.568 7.36C1.568 3.584 4.576 0.959999 8.992 0.959999C13.632 0.959999 16.672 3.872 16.768 8.16L12.096 8.288C12 6.112 10.816 4.896 9.056 4.896C7.488 4.896 6.336 5.76 6.336 7.168C6.336 11.744 17.344 10.176 17.344 17.728C17.344 21.856 13.856 24.32 9.312 24.32ZM24.49 5.6C23.082 5.6 21.93 4.448 21.93 3.04C21.93 1.6 23.082 0.48 24.49 0.48C25.898 0.48 27.05 1.6 27.05 3.04C27.05 4.448 25.898 5.6 24.49 5.6ZM22.218 7.264H26.762V24H22.218V7.264ZM32.458 -1.90735e-06H37.002V24H32.458V-1.90735e-06ZM55.882 9.824L56.618 7.264H60.458V24H55.882V21.12C55.05 23.104 52.842 24.32 50.058 24.32C44.97 24.32 41.994 20.352 41.994 15.584C41.994 10.624 45.13 6.912 50.314 6.912C52.426 6.912 54.634 7.872 55.882 9.728V9.824ZM51.242 20.256C53.93 20.256 55.85 18.304 55.85 15.616C55.85 12.96 53.93 11.04 51.242 11.04C48.522 11.04 46.57 12.928 46.57 15.616C46.57 18.336 48.522 20.256 51.242 20.256ZM75.884 6.912C79.404 6.912 82.636 9.12 82.636 14.24V24H78.06V14.944C78.06 11.712 76.236 10.816 74.476 10.816C72.3 10.816 70.732 12.192 70.732 15.104V24H66.188V-1.90735e-06H70.732V9.6C71.788 7.904 73.484 6.912 75.884 6.912ZM96.69 15.104L104.306 24H98.93L92.498 16.224C92.69 18.016 92.722 20.352 92.722 24H88.178V-1.90735e-06H92.722C92.722 8.224 92.722 11.616 92.466 14.016L98.898 7.264H104.242L96.69 15.104ZM120.383 9.824L121.119 7.264H124.959V24H120.383V21.12C119.551 23.104 117.343 24.32 114.559 24.32C109.471 24.32 106.495 20.352 106.495 15.584C106.495 10.624 109.631 6.912 114.815 6.912C116.927 6.912 119.135 7.872 120.383 9.728V9.824ZM115.743 20.256C118.431 20.256 120.351 18.304 120.351 15.616C120.351 12.96 118.431 11.04 115.743 11.04C113.023 11.04 111.071 12.928 111.071 15.616C111.071 18.336 113.023 20.256 115.743 20.256ZM140.449 6.912C143.969 6.912 147.201 9.12 147.201 14.24V24H142.593V14.944C142.593 11.712 140.801 10.816 139.041 10.816C136.833 10.816 135.297 12.192 135.297 15.104V24H130.689V7.264H134.529L135.233 9.664C136.289 7.936 137.985 6.912 140.449 6.912ZM176.167 24H162.023V1.28H166.663V19.808H176.167V24ZM189.417 24.32C184.169 24.32 180.393 20.704 180.393 15.616C180.393 10.592 184.169 6.912 189.417 6.912C194.665 6.912 198.473 10.592 198.473 15.616C198.473 20.704 194.665 24.32 189.417 24.32ZM189.417 20.224C192.105 20.224 194.057 18.272 194.057 15.616C194.057 12.928 192.105 11.008 189.417 11.008C186.761 11.008 184.777 12.928 184.777 15.616C184.777 18.272 186.761 20.224 189.417 20.224ZM216.615 9.824L217.446 7.264H221.159V22.272C221.159 28.096 218.023 31.872 212.038 31.872C209.446 31.872 206.278 31.104 204.678 29.888V25.984C206.086 26.752 208.262 27.936 211.11 27.936C214.663 27.936 216.615 26.208 216.615 22.272V21.12C215.783 23.104 213.575 24.32 210.79 24.32C205.702 24.32 202.726 20.352 202.726 15.584C202.726 10.624 205.862 6.912 211.047 6.912C213.158 6.912 215.366 7.872 216.615 9.728V9.824ZM211.974 20.256C214.663 20.256 216.583 18.304 216.583 15.616C216.583 12.96 214.663 11.04 211.974 11.04C209.254 11.04 207.302 12.928 207.302 15.616C207.302 18.336 209.254 20.256 211.974 20.256ZM229.13 5.6C227.722 5.6 226.57 4.448 226.57 3.04C226.57 1.6 227.722 0.48 229.13 0.48C230.538 0.48 231.69 1.6 231.69 3.04C231.69 4.448 230.538 5.6 229.13 5.6ZM226.858 7.264H231.402V24H226.858V7.264ZM246.858 6.912C250.378 6.912 253.61 9.12 253.61 14.24V24H249.002V14.944C249.002 11.712 247.21 10.816 245.45 10.816C243.242 10.816 241.706 12.192 241.706 15.104V24H237.098V7.264H240.938L241.642 9.664C242.698 7.936 244.394 6.912 246.858 6.912ZM11.648 60H7.008V41.472H1.056V37.28H17.6V41.472H11.648V60ZM27.3103 42.912C32.3983 42.912 36.1423 46.336 35.9183 53.056H23.2143C23.4383 55.104 25.2622 56.576 27.5983 56.576C29.5823 56.576 30.9583 55.648 31.6302 54.336L35.5983 54.752C34.7023 57.92 31.4703 60.32 27.5662 60.32C22.3822 60.32 18.6702 56.864 18.6702 51.68C18.6702 46.656 22.2543 42.912 27.3103 42.912ZM27.3103 46.56C25.0382 46.56 23.3422 47.936 23.1823 49.888H31.3103C31.2143 47.936 29.5823 46.56 27.3103 46.56ZM44.6075 43.264L45.3435 45.408C46.2075 43.872 47.7115 42.912 50.3675 43.232L50.3355 47.136C47.1995 46.752 45.4395 47.808 45.4395 50.432V60H40.8955V43.264H44.6075ZM55.1668 36H59.7108V60H55.1668V36ZM73.3427 42.912C78.4307 42.912 82.1747 46.336 81.9508 53.056H69.2467C69.4707 55.104 71.2947 56.576 73.6307 56.576C75.6147 56.576 76.9907 55.648 77.6627 54.336L81.6308 54.752C80.7348 57.92 77.5027 60.32 73.5987 60.32C68.4147 60.32 64.7027 56.864 64.7027 51.68C64.7027 46.656 68.2867 42.912 73.3427 42.912ZM73.3427 46.56C71.0707 46.56 69.3747 47.936 69.2147 49.888H77.3427C77.2467 47.936 75.6147 46.56 73.3427 46.56ZM97.296 42.944C102.384 42.944 105.36 46.944 105.36 51.68C105.36 56.64 102.224 60.352 97.04 60.352C94.928 60.352 92.72 59.392 91.472 57.536V60H86.928V36H91.472V46.176C92.304 44.192 94.512 42.944 97.296 42.944ZM96.112 56.256C98.832 56.256 100.784 54.336 100.784 51.648C100.784 48.928 98.832 47.04 96.112 47.04C93.424 47.04 91.504 48.96 91.504 51.648C91.504 54.304 93.424 56.256 96.112 56.256ZM112.628 41.6C111.22 41.6 110.068 40.448 110.068 39.04C110.068 37.6 111.22 36.48 112.628 36.48C114.036 36.48 115.188 37.6 115.188 39.04C115.188 40.448 114.036 41.6 112.628 41.6ZM110.356 43.264H114.9V60H110.356V43.264ZM130.292 42.912C133.812 42.912 137.044 45.12 137.044 50.24V60H132.468V50.944C132.468 47.712 130.644 46.816 128.884 46.816C126.708 46.816 125.14 48.192 125.14 51.104V60H120.596V36H125.14V45.6C126.196 43.904 127.892 42.912 130.292 42.912ZM164.666 45.728V36H169.21V60H164.666V57.12C163.834 59.104 161.626 60.32 158.842 60.32C153.754 60.32 150.778 56.352 150.778 51.584C150.778 46.624 153.914 42.912 159.098 42.912C161.21 42.912 163.418 43.872 164.666 45.728ZM160.026 56.256C162.714 56.256 164.634 54.304 164.634 51.616C164.634 48.96 162.714 47.04 160.026 47.04C157.306 47.04 155.354 48.928 155.354 51.616C155.354 54.336 157.306 56.256 160.026 56.256ZM188.093 45.824L188.829 43.264H192.669V60H188.093V57.12C187.261 59.104 185.053 60.32 182.269 60.32C177.181 60.32 174.205 56.352 174.205 51.584C174.205 46.624 177.341 42.912 182.525 42.912C184.637 42.912 186.845 43.872 188.093 45.728V45.824ZM183.453 56.256C186.141 56.256 188.061 54.304 188.061 51.616C188.061 48.96 186.141 47.04 183.453 47.04C180.733 47.04 178.781 48.928 178.781 51.616C178.781 54.336 180.733 56.256 183.453 56.256ZM208.095 42.912C211.615 42.912 214.847 45.12 214.847 50.24V60H210.271V50.944C210.271 47.712 208.447 46.816 206.687 46.816C204.511 46.816 202.943 48.192 202.943 51.104V60H198.399V36H202.943V45.6C203.999 43.904 205.695 42.912 208.095 42.912ZM232.069 52.192V43.264H236.645V60H232.805L232.165 57.536C231.141 59.296 229.381 60.352 226.917 60.352C223.429 60.352 220.197 58.144 220.197 53.024V43.264H224.741V52.32C224.741 55.552 226.565 56.448 228.325 56.448C230.501 56.448 232.069 55.072 232.069 52.192ZM242.379 36H246.923V60H242.379V36ZM264.299 52.192V43.264H268.875V60H265.035L264.395 57.536C263.371 59.296 261.611 60.352 259.147 60.352C255.659 60.352 252.427 58.144 252.427 53.024V43.264H256.971V52.32C256.971 55.552 258.795 56.448 260.555 56.448C262.731 56.448 264.299 55.072 264.299 52.192Z" fill="#716B6B"/>
</svg>
