<svg width="510" height="80" viewBox="0 0 510 80" fill="none" xmlns="http://www.w3.org/2000/svg">
<path d="M10.034 17.422L6.038 21.526V27.97H1.358V2.76997H6.038V15.694L18.494 2.76997H23.75L13.166 14.038L24.398 27.97H18.926L10.034 17.422ZM34.9488 28.222C33.0048 28.222 31.2528 27.802 29.6928 26.962C28.1328 26.122 26.9088 24.958 26.0208 23.47C25.1568 21.958 24.7248 20.254 24.7248 18.358C24.7248 16.462 25.1568 14.77 26.0208 13.282C26.9088 11.794 28.1328 10.63 29.6928 9.78997C31.2528 8.94997 33.0048 8.52997 34.9488 8.52997C36.9168 8.52997 38.6808 8.94997 40.2408 9.78997C41.8008 10.63 43.0128 11.794 43.8768 13.282C44.7648 14.77 45.2088 16.462 45.2088 18.358C45.2088 20.254 44.7648 21.958 43.8768 23.47C43.0128 24.958 41.8008 26.122 40.2408 26.962C38.6808 27.802 36.9168 28.222 34.9488 28.222ZM34.9488 24.37C36.6048 24.37 37.9728 23.818 39.0528 22.714C40.1328 21.61 40.6728 20.158 40.6728 18.358C40.6728 16.558 40.1328 15.106 39.0528 14.002C37.9728 12.898 36.6048 12.346 34.9488 12.346C33.2928 12.346 31.9248 12.898 30.8448 14.002C29.7888 15.106 29.2608 16.558 29.2608 18.358C29.2608 20.158 29.7888 21.61 30.8448 22.714C31.9248 23.818 33.2928 24.37 34.9488 24.37ZM60.4199 8.52997C62.8439 8.52997 64.7879 9.23797 66.2519 10.654C67.7159 12.07 68.4479 14.17 68.4479 16.954V27.97H63.9479V17.53C63.9479 15.85 63.5519 14.59 62.7599 13.75C61.9679 12.886 60.8399 12.454 59.3759 12.454C57.7199 12.454 56.4119 12.958 55.4519 13.966C54.4919 14.95 54.0119 16.378 54.0119 18.25V27.97H49.5119V8.74597H53.7959V11.23C54.5399 10.342 55.4759 9.66997 56.6039 9.21397C57.7319 8.75797 59.0039 8.52997 60.4199 8.52997ZM85.7125 26.926C85.1845 27.358 84.5365 27.682 83.7685 27.898C83.0245 28.114 82.2325 28.222 81.3925 28.222C79.2805 28.222 77.6485 27.67 76.4965 26.566C75.3445 25.462 74.7685 23.854 74.7685 21.742V12.49H71.6005V8.88997H74.7685V4.49797H79.2685V8.88997H84.4165V12.49H79.2685V21.634C79.2685 22.57 79.4965 23.29 79.9525 23.794C80.4085 24.274 81.0685 24.514 81.9325 24.514C82.9405 24.514 83.7805 24.25 84.4525 23.722L85.7125 26.926ZM96.7583 8.52997C99.5903 8.52997 101.75 9.21397 103.238 10.582C104.75 11.926 105.506 13.966 105.506 16.702V27.97H101.258V25.63C100.706 26.47 99.9143 27.118 98.8823 27.574C97.8743 28.006 96.6503 28.222 95.2103 28.222C93.7703 28.222 92.5103 27.982 91.4303 27.502C90.3503 26.998 89.5103 26.314 88.9103 25.45C88.3343 24.562 88.0463 23.566 88.0463 22.462C88.0463 20.734 88.6823 19.354 89.9543 18.322C91.2503 17.266 93.2783 16.738 96.0383 16.738H101.006V16.45C101.006 15.106 100.598 14.074 99.7823 13.354C98.9903 12.634 97.8023 12.274 96.2183 12.274C95.1383 12.274 94.0703 12.442 93.0143 12.778C91.9823 13.114 91.1063 13.582 90.3863 14.182L88.6223 10.906C89.6303 10.138 90.8423 9.54997 92.2583 9.14197C93.6743 8.73397 95.1743 8.52997 96.7583 8.52997ZM96.1463 24.946C97.2743 24.946 98.2703 24.694 99.1343 24.19C100.022 23.662 100.646 22.918 101.006 21.958V19.726H96.3623C93.7703 19.726 92.4743 20.578 92.4743 22.282C92.4743 23.098 92.7983 23.746 93.4463 24.226C94.0943 24.706 94.9943 24.946 96.1463 24.946ZM119.129 19.726L115.781 22.894V27.97H111.281V1.25797H115.781V17.386L125.105 8.74597H130.505L122.477 16.81L131.261 27.97H125.789L119.129 19.726ZM156.213 28.33C153.669 28.33 151.365 27.778 149.301 26.674C147.261 25.546 145.653 23.998 144.477 22.03C143.325 20.062 142.749 17.842 142.749 15.37C142.749 12.898 143.337 10.678 144.513 8.70997C145.689 6.74197 147.297 5.20597 149.337 4.10197C151.401 2.97397 153.705 2.40997 156.249 2.40997C158.313 2.40997 160.197 2.76997 161.901 3.48997C163.605 4.20997 165.045 5.25397 166.221 6.62197L163.197 9.46597C161.373 7.49797 159.129 6.51397 156.465 6.51397C154.737 6.51397 153.189 6.89797 151.821 7.66597C150.453 8.40997 149.385 9.45397 148.617 10.798C147.849 12.142 147.465 13.666 147.465 15.37C147.465 17.074 147.849 18.598 148.617 19.942C149.385 21.286 150.453 22.342 151.821 23.11C153.189 23.854 154.737 24.226 156.465 24.226C159.129 24.226 161.373 23.23 163.197 21.238L166.221 24.118C165.045 25.486 163.593 26.53 161.865 27.25C160.161 27.97 158.277 28.33 156.213 28.33ZM178.377 28.33C176.433 28.33 174.549 28.054 172.725 27.502C170.925 26.95 169.497 26.218 168.441 25.306L170.061 21.67C171.093 22.486 172.353 23.158 173.841 23.686C175.353 24.19 176.865 24.442 178.377 24.442C180.249 24.442 181.641 24.142 182.553 23.542C183.489 22.942 183.957 22.15 183.957 21.166C183.957 20.446 183.693 19.858 183.165 19.402C182.661 18.922 182.013 18.55 181.221 18.286C180.429 18.022 179.349 17.722 177.981 17.386C176.061 16.93 174.501 16.474 173.301 16.018C172.125 15.562 171.105 14.854 170.241 13.894C169.401 12.91 168.981 11.59 168.981 9.93397C168.981 8.54197 169.353 7.28197 170.097 6.15397C170.865 5.00197 172.005 4.08997 173.517 3.41797C175.053 2.74597 176.925 2.40997 179.133 2.40997C180.669 2.40997 182.181 2.60197 183.669 2.98597C185.157 3.36997 186.441 3.92197 187.521 4.64197L186.045 8.27797C184.941 7.62997 183.789 7.13797 182.589 6.80197C181.389 6.46597 180.225 6.29797 179.097 6.29797C177.249 6.29797 175.869 6.60997 174.957 7.23397C174.069 7.85797 173.625 8.68597 173.625 9.71797C173.625 10.438 173.877 11.026 174.381 11.482C174.909 11.938 175.569 12.298 176.361 12.562C177.153 12.826 178.233 13.126 179.601 13.462C181.473 13.894 183.009 14.35 184.209 14.83C185.409 15.286 186.429 15.994 187.269 16.954C188.133 17.914 188.565 19.21 188.565 20.842C188.565 22.234 188.181 23.494 187.413 24.622C186.669 25.75 185.529 26.65 183.993 27.322C182.457 27.994 180.585 28.33 178.377 28.33ZM223.94 28.33C220.46 28.33 217.748 27.358 215.804 25.414C213.86 23.446 212.888 20.638 212.888 16.99V2.76997H217.568V16.81C217.568 21.754 219.704 24.226 223.976 24.226C228.224 24.226 230.348 21.754 230.348 16.81V2.76997H234.956V16.99C234.956 20.638 233.984 23.446 232.04 25.414C230.12 27.358 227.42 28.33 223.94 28.33ZM251.986 8.52997C254.41 8.52997 256.354 9.23797 257.818 10.654C259.282 12.07 260.014 14.17 260.014 16.954V27.97H255.514V17.53C255.514 15.85 255.118 14.59 254.326 13.75C253.534 12.886 252.406 12.454 250.942 12.454C249.286 12.454 247.978 12.958 247.018 13.966C246.058 14.95 245.578 16.378 245.578 18.25V27.97H241.078V8.74597H245.362V11.23C246.106 10.342 247.042 9.66997 248.17 9.21397C249.298 8.75797 250.57 8.52997 251.986 8.52997ZM277.279 26.926C276.751 27.358 276.103 27.682 275.335 27.898C274.591 28.114 273.799 28.222 272.959 28.222C270.847 28.222 269.215 27.67 268.063 26.566C266.911 25.462 266.335 23.854 266.335 21.742V12.49H263.167V8.88997H266.335V4.49797H270.835V8.88997H275.983V12.49H270.835V21.634C270.835 22.57 271.063 23.29 271.519 23.794C271.975 24.274 272.635 24.514 273.499 24.514C274.507 24.514 275.347 24.25 276.019 23.722L277.279 26.926ZM299.593 8.74597V27.97H295.309V25.522C294.589 26.386 293.689 27.058 292.609 27.538C291.529 27.994 290.365 28.222 289.117 28.222C286.549 28.222 284.521 27.514 283.033 26.098C281.569 24.658 280.837 22.534 280.837 19.726V8.74597H285.337V19.114C285.337 20.842 285.721 22.138 286.489 23.002C287.281 23.842 288.397 24.262 289.837 24.262C291.445 24.262 292.717 23.77 293.653 22.786C294.613 21.778 295.093 20.338 295.093 18.466V8.74597H299.593ZM313.333 19.726L309.985 22.894V27.97H305.485V1.25797H309.985V17.386L319.309 8.74597H324.709L316.681 16.81L325.465 27.97H319.993L313.333 19.726ZM338.753 2.76997H343.433V27.97H338.753V2.76997ZM360.725 8.52997C363.149 8.52997 365.093 9.23797 366.557 10.654C368.021 12.07 368.753 14.17 368.753 16.954V27.97H364.253V17.53C364.253 15.85 363.857 14.59 363.065 13.75C362.273 12.886 361.145 12.454 359.681 12.454C358.025 12.454 356.717 12.958 355.757 13.966C354.797 14.95 354.317 16.378 354.317 18.25V27.97H349.817V8.74597H354.101V11.23C354.845 10.342 355.781 9.66997 356.909 9.21397C358.037 8.75797 359.309 8.52997 360.725 8.52997ZM382.273 4.64197C380.377 4.64197 379.429 5.67397 379.429 7.73797V8.88997H384.721V12.49H379.573V27.97H375.073V12.49H371.905V8.88997H375.073V7.66597C375.073 5.60197 375.673 3.98197 376.873 2.80597C378.073 1.60597 379.765 1.00597 381.949 1.00597C383.677 1.00597 385.033 1.35397 386.017 2.04997L384.757 5.43397C383.989 4.90597 383.161 4.64197 382.273 4.64197ZM396.109 28.222C394.165 28.222 392.413 27.802 390.853 26.962C389.293 26.122 388.069 24.958 387.181 23.47C386.317 21.958 385.885 20.254 385.885 18.358C385.885 16.462 386.317 14.77 387.181 13.282C388.069 11.794 389.293 10.63 390.853 9.78997C392.413 8.94997 394.165 8.52997 396.109 8.52997C398.077 8.52997 399.841 8.94997 401.401 9.78997C402.961 10.63 404.173 11.794 405.037 13.282C405.925 14.77 406.369 16.462 406.369 18.358C406.369 20.254 405.925 21.958 405.037 23.47C404.173 24.958 402.961 26.122 401.401 26.962C399.841 27.802 398.077 28.222 396.109 28.222ZM396.109 24.37C397.765 24.37 399.133 23.818 400.213 22.714C401.293 21.61 401.833 20.158 401.833 18.358C401.833 16.558 401.293 15.106 400.213 14.002C399.133 12.898 397.765 12.346 396.109 12.346C394.453 12.346 393.085 12.898 392.005 14.002C390.949 15.106 390.421 16.558 390.421 18.358C390.421 20.158 390.949 21.61 392.005 22.714C393.085 23.818 394.453 24.37 396.109 24.37ZM414.956 11.554C416.252 9.53797 418.532 8.52997 421.796 8.52997V12.814C421.412 12.742 421.064 12.706 420.752 12.706C419 12.706 417.632 13.222 416.648 14.254C415.664 15.262 415.172 16.726 415.172 18.646V27.97H410.672V8.74597H414.956V11.554ZM449.878 8.52997C452.302 8.52997 454.222 9.23797 455.638 10.654C457.054 12.046 457.761 14.146 457.761 16.954V27.97H453.261V17.53C453.261 15.85 452.89 14.59 452.146 13.75C451.402 12.886 450.334 12.454 448.941 12.454C447.43 12.454 446.218 12.958 445.305 13.966C444.393 14.95 443.937 16.366 443.937 18.214V27.97H439.437V17.53C439.437 15.85 439.065 14.59 438.322 13.75C437.577 12.886 436.509 12.454 435.117 12.454C433.581 12.454 432.357 12.946 431.445 13.93C430.557 14.914 430.113 16.342 430.113 18.214V27.97H425.613V8.74597H429.897V11.194C430.617 10.33 431.517 9.66997 432.597 9.21397C433.677 8.75797 434.877 8.52997 436.197 8.52997C437.637 8.52997 438.909 8.80597 440.013 9.35797C441.142 9.88597 442.03 10.678 442.678 11.734C443.47 10.726 444.49 9.94597 445.738 9.39397C446.985 8.81797 448.365 8.52997 449.878 8.52997ZM470.856 8.52997C473.688 8.52997 475.848 9.21397 477.336 10.582C478.848 11.926 479.604 13.966 479.604 16.702V27.97H475.356V25.63C474.804 26.47 474.012 27.118 472.98 27.574C471.972 28.006 470.748 28.222 469.308 28.222C467.868 28.222 466.608 27.982 465.528 27.502C464.448 26.998 463.608 26.314 463.008 25.45C462.432 24.562 462.144 23.566 462.144 22.462C462.144 20.734 462.78 19.354 464.052 18.322C465.348 17.266 467.376 16.738 470.136 16.738H475.104V16.45C475.104 15.106 474.696 14.074 473.88 13.354C473.088 12.634 471.9 12.274 470.316 12.274C469.236 12.274 468.168 12.442 467.112 12.778C466.08 13.114 465.204 13.582 464.484 14.182L462.72 10.906C463.728 10.138 464.94 9.54997 466.356 9.14197C467.772 8.73397 469.272 8.52997 470.856 8.52997ZM470.244 24.946C471.372 24.946 472.368 24.694 473.232 24.19C474.12 23.662 474.744 22.918 475.104 21.958V19.726H470.46C467.868 19.726 466.572 20.578 466.572 22.282C466.572 23.098 466.896 23.746 467.544 24.226C468.192 24.706 469.092 24.946 470.244 24.946ZM491.319 28.222C489.759 28.222 488.235 28.018 486.747 27.61C485.259 27.202 484.071 26.686 483.183 26.062L484.911 22.642C485.775 23.218 486.807 23.686 488.007 24.046C489.231 24.382 490.431 24.55 491.607 24.55C494.295 24.55 495.639 23.842 495.639 22.426C495.639 21.754 495.291 21.286 494.595 21.022C493.923 20.758 492.831 20.506 491.319 20.266C489.735 20.026 488.439 19.75 487.431 19.438C486.447 19.126 485.583 18.586 484.839 17.818C484.119 17.026 483.759 15.934 483.759 14.542C483.759 12.718 484.515 11.266 486.027 10.186C487.563 9.08197 489.627 8.52997 492.219 8.52997C493.539 8.52997 494.859 8.68597 496.179 8.99797C497.499 9.28597 498.579 9.68197 499.419 10.186L497.691 13.606C496.059 12.646 494.223 12.166 492.183 12.166C490.863 12.166 489.855 12.37 489.159 12.778C488.487 13.162 488.151 13.678 488.151 14.326C488.151 15.046 488.511 15.562 489.231 15.874C489.975 16.162 491.115 16.438 492.651 16.702C494.187 16.942 495.447 17.218 496.431 17.53C497.415 17.842 498.255 18.37 498.951 19.114C499.671 19.858 500.031 20.914 500.031 22.282C500.031 24.082 499.251 25.522 497.691 26.602C496.131 27.682 494.007 28.222 491.319 28.222ZM503.906 8.74597H508.406V27.97H503.906V8.74597ZM506.174 5.57797C505.358 5.57797 504.674 5.32597 504.122 4.82197C503.57 4.29397 503.294 3.64597 503.294 2.87797C503.294 2.10997 503.57 1.47397 504.122 0.969969C504.674 0.44197 505.358 0.17797 506.174 0.17797C506.99 0.17797 507.674 0.42997 508.226 0.933969C508.778 1.41397 509.054 2.02597 509.054 2.76997C509.054 3.56197 508.778 4.23397 508.226 4.78597C507.698 5.31397 507.014 5.57797 506.174 5.57797ZM0.925999 45.258H5.426V71.97H0.925999V45.258ZM29.4043 62.466C29.4043 62.778 29.3803 63.222 29.3322 63.798H14.2482C14.5122 65.214 15.1962 66.342 16.3002 67.182C17.4282 67.998 18.8202 68.406 20.4762 68.406C22.5882 68.406 24.3283 67.71 25.6963 66.318L28.1083 69.09C27.2443 70.122 26.1522 70.902 24.8322 71.43C23.5122 71.958 22.0242 72.222 20.3682 72.222C18.2562 72.222 16.3962 71.802 14.7882 70.962C13.1802 70.122 11.9322 68.958 11.0442 67.47C10.1802 65.958 9.74825 64.254 9.74825 62.358C9.74825 60.486 10.1682 58.806 11.0082 57.318C11.8722 55.806 13.0602 54.63 14.5722 53.79C16.0842 52.95 17.7882 52.53 19.6842 52.53C21.5562 52.53 23.2242 52.95 24.6882 53.79C26.1763 54.606 27.3283 55.77 28.1442 57.282C28.9843 58.77 29.4043 60.498 29.4043 62.466ZM19.6842 56.13C18.2442 56.13 17.0202 56.562 16.0122 57.426C15.0282 58.266 14.4282 59.394 14.2122 60.81H25.1203C24.9282 59.418 24.3402 58.29 23.3562 57.426C22.3722 56.562 21.1482 56.13 19.6842 56.13ZM44.3828 52.53C46.2548 52.53 47.9228 52.938 49.3868 53.754C50.8748 54.57 52.0388 55.722 52.8788 57.21C53.7188 58.698 54.1388 60.414 54.1388 62.358C54.1388 64.302 53.7188 66.03 52.8788 67.542C52.0388 69.03 50.8748 70.182 49.3868 70.998C47.9228 71.814 46.2548 72.222 44.3828 72.222C43.0628 72.222 41.8508 71.994 40.7468 71.538C39.6668 71.082 38.7548 70.398 38.0108 69.486V71.97H33.7268V45.258H38.2268V55.086C38.9948 54.246 39.8948 53.61 40.9268 53.178C41.9828 52.746 43.1348 52.53 44.3828 52.53ZM43.8788 68.37C45.5348 68.37 46.8908 67.818 47.9468 66.714C49.0268 65.61 49.5668 64.158 49.5668 62.358C49.5668 60.558 49.0268 59.106 47.9468 58.002C46.8908 56.898 45.5348 56.346 43.8788 56.346C42.7988 56.346 41.8268 56.598 40.9628 57.102C40.0988 57.582 39.4148 58.278 38.9108 59.19C38.4068 60.102 38.1548 61.158 38.1548 62.358C38.1548 63.558 38.4068 64.614 38.9108 65.526C39.4148 66.438 40.0988 67.146 40.9628 67.65C41.8268 68.13 42.7988 68.37 43.8788 68.37ZM58.4065 52.746H62.9065V71.97H58.4065V52.746ZM60.6745 49.578C59.8585 49.578 59.1745 49.326 58.6225 48.822C58.0705 48.294 57.7945 47.646 57.7945 46.878C57.7945 46.11 58.0705 45.474 58.6225 44.97C59.1745 44.442 59.8585 44.178 60.6745 44.178C61.4905 44.178 62.1745 44.43 62.7265 44.934C63.2785 45.414 63.5545 46.026 63.5545 46.77C63.5545 47.562 63.2785 48.234 62.7265 48.786C62.1985 49.314 61.5145 49.578 60.6745 49.578ZM79.7207 52.53C82.1447 52.53 84.0887 53.238 85.5527 54.654C87.0167 56.07 87.7487 58.17 87.7487 60.954V71.97H83.2487V61.53C83.2487 59.85 82.8527 58.59 82.0607 57.75C81.2687 56.886 80.1407 56.454 78.6767 56.454C77.0207 56.454 75.7127 56.958 74.7527 57.966C73.7927 58.95 73.3127 60.378 73.3127 62.25V71.97H68.8127V45.258H73.3127V54.978C74.0567 54.186 74.9687 53.586 76.0487 53.178C77.1527 52.746 78.3767 52.53 79.7207 52.53ZM103.406 45.258H107.906V71.97H103.406V45.258ZM121.157 52.53C123.989 52.53 126.149 53.214 127.637 54.582C129.149 55.926 129.905 57.966 129.905 60.702V71.97H125.657V69.63C125.105 70.47 124.313 71.118 123.281 71.574C122.273 72.006 121.049 72.222 119.609 72.222C118.169 72.222 116.909 71.982 115.829 71.502C114.749 70.998 113.909 70.314 113.309 69.45C112.733 68.562 112.445 67.566 112.445 66.462C112.445 64.734 113.081 63.354 114.353 62.322C115.649 61.266 117.677 60.738 120.437 60.738H125.405V60.45C125.405 59.106 124.997 58.074 124.181 57.354C123.389 56.634 122.201 56.274 120.617 56.274C119.537 56.274 118.469 56.442 117.413 56.778C116.381 57.114 115.505 57.582 114.785 58.182L113.021 54.906C114.029 54.138 115.241 53.55 116.657 53.142C118.073 52.734 119.573 52.53 121.157 52.53ZM120.545 68.946C121.673 68.946 122.669 68.694 123.533 68.19C124.421 67.662 125.045 66.918 125.405 65.958V63.726H120.761C118.169 63.726 116.873 64.578 116.873 66.282C116.873 67.098 117.197 67.746 117.845 68.226C118.493 68.706 119.393 68.946 120.545 68.946ZM146.588 52.53C149.012 52.53 150.956 53.238 152.42 54.654C153.884 56.07 154.616 58.17 154.616 60.954V71.97H150.116V61.53C150.116 59.85 149.72 58.59 148.928 57.75C148.136 56.886 147.008 56.454 145.544 56.454C143.888 56.454 142.58 56.958 141.62 57.966C140.66 58.95 140.18 60.378 140.18 62.25V71.97H135.68V52.746H139.964V55.23C140.708 54.342 141.644 53.67 142.772 53.214C143.9 52.758 145.172 52.53 146.588 52.53ZM158.344 79.206C156.448 79.206 155.008 78.834 154.024 78.09L155.32 74.742C155.992 75.246 156.868 75.498 157.948 75.498C158.788 75.498 159.424 75.234 159.856 74.706C160.312 74.202 160.54 73.446 160.54 72.438V52.746H165.04V72.33C165.04 74.466 164.452 76.146 163.276 77.37C162.1 78.594 160.456 79.206 158.344 79.206ZM162.772 49.578C161.956 49.578 161.272 49.326 160.72 48.822C160.168 48.294 159.892 47.646 159.892 46.878C159.892 46.11 160.168 45.474 160.72 44.97C161.272 44.442 161.956 44.178 162.772 44.178C163.588 44.178 164.272 44.43 164.824 44.934C165.376 45.414 165.652 46.026 165.652 46.77C165.652 47.562 165.376 48.234 164.824 48.786C164.296 49.314 163.612 49.578 162.772 49.578ZM189.554 52.746V71.97H185.27V69.522C184.55 70.386 183.65 71.058 182.57 71.538C181.49 71.994 180.326 72.222 179.078 72.222C176.51 72.222 174.482 71.514 172.994 70.098C171.53 68.658 170.798 66.534 170.798 63.726V52.746H175.298V63.114C175.298 64.842 175.682 66.138 176.45 67.002C177.242 67.842 178.358 68.262 179.798 68.262C181.406 68.262 182.678 67.77 183.614 66.786C184.574 65.778 185.054 64.338 185.054 62.466V52.746H189.554ZM207.002 70.926C206.474 71.358 205.826 71.682 205.058 71.898C204.314 72.114 203.522 72.222 202.682 72.222C200.57 72.222 198.938 71.67 197.786 70.566C196.634 69.462 196.058 67.854 196.058 65.742V56.49H192.89V52.89H196.058V48.498H200.558V52.89H205.706V56.49H200.558V65.634C200.558 66.57 200.786 67.29 201.242 67.794C201.698 68.274 202.358 68.514 203.222 68.514C204.23 68.514 205.07 68.25 205.742 67.722L207.002 70.926Z" fill="#585E97"/>
</svg>
